<svg width="600" height="203" viewBox="0 0 600 203" fill="none" xmlns="http://www.w3.org/2000/svg">
<path d="M24.6774 25.0311V25.6078H24.8665C25.1817 25.6078 25.3393 25.4156 25.3393 25.0311H24.6774ZM69.8721 177.409H70.3449C70.597 177.409 70.7231 177.217 70.7231 176.832V176.602C70.1558 176.832 69.8721 177.101 69.8721 177.409ZM88.8766 177.409H91.5239V175.563C90.0112 176.256 89.1287 176.871 88.8766 177.409ZM77.3415 177.178V177.409H80.6508C80.6508 176.64 81.4071 175.102 82.9199 172.795C79.6422 175.487 77.7828 176.948 77.3415 177.178ZM91.2403 167.143C91.2403 167.527 90.736 168.45 89.7275 169.911C90.1057 169.911 90.7045 170.065 91.5239 170.373V167.143H91.2403ZM90.3894 162.875L91.5239 163.682V161.491C91.2718 161.491 90.8936 161.952 90.3894 162.875ZM82.9199 161.491C86.4498 158.645 88.9396 157.223 90.3894 157.223L91.5239 158.03V152.378C89.696 154.531 86.828 157.569 82.9199 161.491ZM55.5006 138.421V139.689C56.5721 138.767 57.1079 138.228 57.1079 138.075H56.8243L55.5006 138.421ZM78.9489 146.957C84.8109 142.342 88.4668 140.035 89.9166 140.035C90.4209 140.035 90.9567 140.305 91.5239 140.843V134.614C89.3178 137.306 85.1261 141.42 78.9489 146.957ZM90.3894 130C90.6415 130 91.0197 130.192 91.5239 130.577V128.731C91.2718 128.731 90.8936 129.154 90.3894 130ZM90.5785 124.117L91.5239 124.694V123.079C91.2718 123.079 90.9567 123.425 90.5785 124.117ZM91.2403 113.62C91.2403 114.389 90.2948 115.466 88.4038 116.85V117.081L89.5384 116.85H90.5785L91.2403 117.427H91.5239V113.62H91.2403ZM55.5006 125.501V129.539C58.9044 126.155 64.7979 120.657 73.1813 113.043C63.2852 121.349 57.3916 125.501 55.5006 125.501ZM55.9733 113.39H55.5006V116.043C57.6437 113.736 59.188 112.313 60.1335 111.775V111.429H59.9444C58.2425 112.736 56.9188 113.39 55.9733 113.39ZM91.2403 100.701C89.2863 103.7 85.7564 107.391 80.6508 111.775C75.8602 115.927 73.3074 118.234 72.9922 118.696C82.5102 110.852 88.1517 106.93 89.9166 106.93C90.4209 106.93 90.9567 107.199 91.5239 107.737V100.701H91.2403ZM85.5673 94.8181V95.0488H85.7564C87.5844 93.8184 88.9081 93.2032 89.7275 93.2032H89.9166C90.4209 93.2032 90.9567 93.4723 91.5239 94.0106V88.8199C87.9941 92.8187 86.0086 94.8181 85.5673 94.8181ZM55.5006 101.278V105.546C60.165 100.932 66.7205 94.8181 75.1669 87.205C64.0731 96.5868 57.5176 101.278 55.5006 101.278ZM55.5006 86.7436V87.205H55.7842C56.0364 87.205 56.1624 87.0512 56.1624 86.7436H55.5006ZM55.5006 78.0923V79.4765C55.6897 79.4765 56.0679 79.0151 56.6352 78.0923H55.5006ZM91.2403 76.4774C90.0427 78.6306 86.828 82.1295 81.5962 86.9743C80.6508 87.5895 77.0264 90.8193 70.7231 96.6637C81.6908 87.5126 88.0887 82.937 89.9166 82.937C90.2948 82.937 90.8306 83.2061 91.5239 83.7444V76.4774H91.2403ZM91.0512 70.0177L91.5239 70.2484V69.441C91.2088 69.5179 91.0512 69.7101 91.0512 70.0177ZM56.4461 69.441H55.5006V71.4019C56.8243 70.1715 57.4861 69.441 57.4861 69.2103L56.4461 69.441ZM91.0512 65.4037L91.5239 65.7498V64.9423C91.2088 64.9423 91.0512 65.0961 91.0512 65.4037ZM62.119 70.2484V70.5945H62.5918L72.7086 62.52H72.3304L62.119 70.2484ZM77.3415 58.4827C77.3415 58.7903 76.9003 59.1363 76.0178 59.5208V59.7515H76.4906C76.4906 59.4439 76.9318 59.0979 77.8143 58.7134V58.4827H77.3415ZM119.7 59.5208H122.347V57.6752C120.834 58.3673 119.952 58.9825 119.7 59.5208ZM61.4572 56.8678C61.4572 57.0216 60.2911 57.9828 57.9589 59.7515H58.6207C60.5747 57.9828 61.6778 57.0985 61.9299 57.0985V56.8678H61.4572ZM107.597 59.2901V59.5208H112.419C112.419 58.9825 113.522 56.7524 115.729 52.8305L107.597 59.2901ZM120.172 52.8305V53.0612H121.023C121.465 53.0612 121.906 53.2535 122.347 53.638V49.024C122.221 49.024 121.496 50.2928 120.172 52.8305ZM121.685 44.756C121.748 45.0636 121.906 45.2174 122.158 45.2174H122.347V43.9485C122.158 43.9485 121.937 44.2177 121.685 44.756ZM24.6774 38.7578V41.1801C26.9466 38.7962 28.1127 37.4505 28.1758 37.1429C26.663 38.2195 25.4969 38.7578 24.6774 38.7578ZM113.365 35.0665C113.239 35.2972 109.047 38.5271 100.79 44.756V44.9867H101.168C101.168 44.8329 105.36 41.6031 113.743 35.2972V35.0665H113.365ZM103.815 33.4516C103.185 34.2206 101.136 35.8355 97.6697 38.2964V38.5271H98.1424C98.6467 37.835 100.695 36.2201 104.288 33.6823V33.4516H103.815ZM122.158 31.8367C122.158 32.4519 121.339 33.4132 119.7 34.7205V35.0665C120.897 35.0665 121.78 35.3357 122.347 35.874V31.8367H122.158ZM102.964 25.0311C102.964 27.5688 99.4976 31.5291 92.564 36.9122C87.7105 41.0648 78.5391 48.5241 65.0501 59.2901V59.5208H65.2392C93.4149 36.7584 107.913 25.3771 108.732 25.3771V25.0311H102.964ZM87.5529 25.0311C87.5529 27.6457 83.046 32.6826 74.0323 40.142C65.3337 48.2165 60.7954 52.3307 60.4172 52.4845V52.8305H60.7953C78.5076 38.2195 89.9796 28.953 95.2114 25.0311H87.5529ZM78.6652 25.0311V25.8385H78.9489C79.264 25.5309 79.5477 25.3771 79.7998 25.3771V25.0311H78.6652ZM54.8387 25.0311V25.8385C55.4691 25.6078 55.7842 25.3387 55.7842 25.0311H54.8387ZM42.7364 25.0311C42.7364 26.646 40.026 30.3372 34.6051 36.1047C41.98 29.9527 46.5184 26.3768 48.2203 25.3771V25.0311H42.7364ZM0 140.497H18.1535V140.958H0V140.497ZM99.4661 140.497H108.732V140.958H99.4661V140.497ZM117.147 113.274H117.525V128.039H117.147V113.274ZM29.2158 107.276L29.4049 107.737V109.698C29.4049 110.006 29.2788 110.16 29.0267 110.16L28.8376 109.698V107.737C28.8376 107.43 28.9637 107.276 29.2158 107.276ZM36.6852 101.047H45.0056V101.624H36.6852V101.047ZM117.147 86.9743H117.525V94.472H117.147V86.9743ZM29.2158 80.8607L29.4049 81.3221V92.5111C29.4049 92.8187 29.2788 92.9725 29.0267 92.9725L28.8376 92.5111V81.3221C28.8376 81.0145 28.9637 80.8607 29.2158 80.8607ZM100.979 179.485H117.147V159.068H117.525V179.485H146.646V140.958H127.926V140.497H146.646V101.624H128.966V101.047H146.646V62.1739H132.558C132.495 62.4046 132.338 62.52 132.086 62.52H124.616V70.5945C124.616 70.9021 124.459 71.0559 124.144 71.0559H122.82C122.505 71.0559 122.347 70.9021 122.347 70.5945V62.52H95.495L93.8877 62.9814V171.526C93.8877 172.757 93.9822 174.718 94.1713 177.409H100.506C100.821 177.486 100.979 177.678 100.979 177.986V179.485ZM117.525 25.0311V27.9148C118.912 27.2996 119.952 26.992 120.645 26.992C121.086 26.992 121.654 27.3381 122.347 28.0302V25.0311H117.525ZM58.3371 159.991V158.03C57.0764 158.722 56.1309 159.068 55.5006 159.068V162.875C56.257 162.029 57.2025 161.068 58.3371 159.991ZM29.4049 50.9849V53.5226C30.8547 52.0615 32.6511 50.3697 34.7942 48.4472L47.3693 36.9122C39.049 43.8332 33.0608 48.5241 29.4049 50.9849ZM58.7153 46.9476V48.7933C60.3541 47.2552 62.2451 45.525 64.3882 43.6025L76.9633 32.6442V32.2981H76.4906C69.5569 38.0657 63.6318 42.9488 58.7153 46.9476ZM29.4049 28.3762V28.953C32.4305 26.4922 33.9433 25.1849 33.9433 25.0311H30.3504C30.3504 26.0308 30.0352 27.1458 29.4049 28.3762ZM29.4049 22.1473H58.3371V0.230701H58.7153V22.1473H87.6474V0.461402C87.6474 0.153801 87.7735 0 88.0256 0L88.2147 0.461402V22.1473H117.147V0.230701H117.525V22.1473H122.347V10.2662C122.41 9.88169 122.568 9.68944 122.82 9.68944H124.144C124.459 9.76634 124.616 9.95859 124.616 10.2662V22.1473H132.275C132.527 22.1473 132.685 22.2626 132.748 22.4933H146.646V0.230701H147.025V202.44H146.646V180.177H117.525V202.44H117.147V180.177H100.884C100.821 180.331 100.695 180.408 100.506 180.408H94.1713V186.868C94.1713 187.175 94.0138 187.329 93.6986 187.329H92.1858C91.8706 187.329 91.713 187.175 91.713 186.868V180.408H88.2147V202.209C88.2147 202.517 88.0886 202.671 87.8365 202.671L87.6474 202.209V180.408H58.7153V202.44H58.3371V180.408H55.5006V189.521C55.5006 189.905 55.3745 190.098 55.1224 190.098H53.515C53.2629 190.098 53.1368 189.905 53.1368 189.521V180.408H41.2236C41.0345 180.408 40.9084 180.331 40.8454 180.177H29.4049V202.209C29.4049 202.517 29.2788 202.671 29.0267 202.671L28.8376 202.209V180.177H0V179.485H28.8376V159.068C28.8376 158.761 28.9637 158.607 29.2158 158.607L29.4049 159.068V179.485H40.7509V177.986C40.8139 177.601 40.9715 177.409 41.2236 177.409H53.1368V62.52H29.4049V63.9042C29.4049 64.2118 29.2788 64.3656 29.0267 64.3656L28.8376 63.9042V62.52H24.6774V72.2094C24.6774 72.517 24.5198 72.6708 24.2047 72.6708H22.6919C22.3767 72.6708 22.2191 72.517 22.2191 72.2094V62.52H10.7786C10.5265 62.52 10.3689 62.4046 10.3059 62.1739H0V61.7125H10.3059V60.3283C10.3689 59.9438 10.5265 59.7515 10.7786 59.7515H22.2191V25.0311H13.1424C12.8903 25.0311 12.7642 24.8773 12.7642 24.5697V23.1854H0V22.4933H12.7642C12.8272 22.2626 12.9533 22.1473 13.1424 22.1473H22.2191V12.6886C22.2822 12.3041 22.4398 12.1118 22.6919 12.1118H24.2047C24.5198 12.1887 24.6774 12.381 24.6774 12.6886V22.1473H28.8376V0.461402C28.8376 0.153801 28.9637 0 29.2158 0L29.4049 0.461402V22.1473ZM58.3371 34.9512V32.0674C56.6352 33.8361 54.4605 35.9124 51.8131 38.2964C41.0975 47.9858 35.7082 52.9074 35.6452 53.0612L58.3371 34.9512ZM58.7153 34.6051L69.0212 26.4153C69.1472 26.4153 69.8091 26.0692 71.0067 25.3771V25.0311H63.0645C63.0645 26.3384 61.6148 28.5685 58.7153 31.7214V34.6051ZM58.3371 47.1783C50.647 53.4073 45.4468 57.4445 42.7364 59.2901V59.5208H49.8276C50.0797 57.829 52.9162 54.3685 58.3371 49.1393V47.1783ZM28.8376 51.331C27.1357 52.4845 26.0326 53.0612 25.5284 53.0612H24.6774V59.5208H25.3393C25.5284 58.2904 26.6945 56.5217 28.8376 54.2147V51.331ZM58.7153 175.794V177.409H62.5918C62.7809 175.487 67.1932 170.565 75.8287 162.644C67.4453 169.488 61.7408 173.872 58.7153 175.794ZM58.3371 176.025C57.3916 176.563 56.7612 176.832 56.4461 176.832H55.5006V177.409H58.3371V176.025ZM58.7153 159.645C60.7953 157.646 63.4743 155.146 66.752 152.147C63.4112 154.839 60.7323 156.723 58.7153 157.799V159.645ZM117.147 25.0311H116.863C116.863 26.3384 116.264 27.6841 115.067 29.0683H115.35C115.981 28.6838 116.58 28.3762 117.147 28.1455V25.0311ZM132.748 23.1854V24.5697C132.748 24.8773 132.59 25.0311 132.275 25.0311H124.805V59.7515H132.086C132.401 59.8284 132.558 60.0207 132.558 60.3283V61.7125H146.646V23.1854H132.748ZM0 101.047H23.1646V101.624H0V101.047Z" fill="#FA4B13"/>
<path d="M201.387 87.551V95.3948C206.934 91.4729 210.369 88.8583 211.693 87.551H201.387ZM230.886 117.427V117.773H234.006C234.006 117.081 234.448 116.004 235.33 114.543H235.141C232.62 116.466 231.201 117.427 230.886 117.427ZM201.387 114.197V117.773H201.576C201.576 117.081 202.017 116.004 202.9 114.543C202.08 114.543 201.576 114.428 201.387 114.197ZM247.054 117.427V117.773H251.687V113.736C249.607 115.581 248.063 116.812 247.054 117.427ZM251.403 102.893C251.403 103.277 251.12 103.931 250.552 104.854V105.084C250.679 105.084 250.899 105.161 251.214 105.315L250.363 109.352L251.687 111.544V102.893H251.403ZM251.214 87.551L251.403 88.9352V89.1659C251.403 90.1656 251.057 91.3576 250.363 92.7418L251.403 92.9725H251.687V87.551H251.214ZM236.465 87.551V89.7427C236.465 90.8962 235.425 92.7802 233.344 95.3948C239.207 90.3963 242.138 87.7817 242.138 87.551H236.465ZM221.431 87.551C221.557 87.7817 221.62 88.4354 221.62 89.512C223.259 88.5123 224.079 87.8586 224.079 87.551H221.431ZM252.065 79.0151H253.673C253.925 79.0151 254.051 79.1689 254.051 79.4765V84.6673H260.291C260.543 84.6673 260.669 84.821 260.669 85.1286V87.0896C260.669 87.3972 260.543 87.551 260.291 87.551H254.051V117.773H258.495C258.81 117.773 258.967 117.927 258.967 118.234V120.195C258.967 120.503 258.81 120.657 258.495 120.657H254.051V133.345C254.051 133.73 253.925 133.922 253.673 133.922H252.065C251.813 133.922 251.687 133.73 251.687 133.345V120.657H243.745C240.971 122.272 238.986 123.079 237.788 123.079C236.465 123.079 235.267 122.272 234.195 120.657H226.726C223.7 122.272 221.557 123.079 220.297 123.079H220.108C219.288 123.079 218.185 122.272 216.798 120.657H215.286C211.062 122.81 208.257 123.886 206.871 123.886C204.98 123.886 203.372 122.81 202.049 120.657H201.387V132.307C201.387 132.615 201.229 132.768 200.914 132.768H199.401C199.086 132.768 198.928 132.615 198.928 132.307V120.657H192.121C191.806 120.657 191.648 120.503 191.648 120.195V118.234C191.711 117.927 191.869 117.773 192.121 117.773H198.928V113.39C198.928 111.467 198.865 110.506 198.739 110.506C198.865 108.66 198.928 107.199 198.928 106.122V87.551H188.812C188.496 87.551 188.339 87.3972 188.339 87.0896V85.1286C188.402 84.821 188.56 84.6673 188.812 84.6673H198.928V79.8225C198.991 79.438 199.149 79.2458 199.401 79.2458H200.914C201.229 79.3227 201.387 79.5149 201.387 79.8225V84.6673H213.962C215.538 84.6673 216.861 84.5519 217.933 84.3212C218.878 84.5519 220.108 84.6673 221.62 84.6673H228.901C229.09 84.6673 229.909 84.475 231.359 84.0905H232.872C233.943 84.475 234.542 84.6673 234.668 84.6673H245.069C246.077 84.6673 246.865 84.475 247.432 84.0905C248.126 84.475 249.103 84.6673 250.363 84.6673H251.687V79.4765C251.687 79.1689 251.813 79.0151 252.065 79.0151ZM250.458 140.497H259.724V140.958H250.458V140.497ZM239.017 124.463L239.207 125.04V129.423C239.207 129.808 239.08 130 238.828 130L238.639 129.423V125.04C238.639 124.655 238.765 124.463 239.017 124.463ZM268.139 113.274H268.517V128.039H268.139V113.274ZM180.208 107.276L180.397 107.737V109.698C180.397 110.006 180.271 110.16 180.019 110.16L179.829 109.698V107.737C179.829 107.43 179.956 107.276 180.208 107.276ZM187.677 101.047H195.997V101.624H187.677V101.047ZM268.139 86.9743H268.517V94.472H268.139V86.9743ZM180.208 80.8607L180.397 81.3221V92.5111C180.397 92.8187 180.271 92.9725 180.019 92.9725L179.829 92.5111V81.3221C179.829 81.0145 179.956 80.8607 180.208 80.8607ZM209.329 75.0932H209.707V79.7072H209.329V75.0932ZM263.789 61.7125H265.491V62.1739H263.789V61.7125ZM217.744 61.7125H232.966V62.1739H217.744V61.7125ZM239.017 0L239.207 0.461402V22.2626C239.207 22.5702 239.08 22.724 238.828 22.724L238.639 22.2626V0.461402C238.639 0.153801 238.765 0 239.017 0ZM150.992 101.047H174.156V101.624H150.992V101.047ZM150.992 140.497H169.145V140.958H150.992V140.497ZM150.992 179.485H179.829V159.068C179.829 158.761 179.956 158.607 180.208 158.607L180.397 159.068V179.485H209.329V149.033H209.707V179.485H238.639V166.912C238.639 166.528 238.765 166.335 239.017 166.335L239.207 166.912V179.485H268.139V159.068H268.517V179.485H297.638V140.958H278.917V140.497H297.638V101.624H279.957V101.047H297.638V62.1739H277.121V61.7125H297.638V23.1854H268.517V44.0639H268.139V23.1854H239.963C239.711 23.1854 239.585 23.0316 239.585 22.724L239.963 22.4933H268.139V0.230701H268.517V22.4933H297.638V0.230701H298.016V202.44H297.638V180.177H268.517V202.44H268.139V180.177H239.207V202.209C239.207 202.517 239.08 202.671 238.828 202.671L238.639 202.209V180.177H209.707V202.44H209.329V180.177H180.397V202.209C180.397 202.517 180.271 202.671 180.019 202.671L179.829 202.209V180.177H150.992V179.485ZM150.992 23.1854V22.4933H179.829V0.461402C179.829 0.153801 179.956 0 180.208 0L180.397 0.461402V22.4933H209.329V0.230701H209.707V22.4933H235.519C235.771 22.4933 235.897 22.6471 235.897 22.9547L235.519 23.1854H209.707V55.1375H209.329V23.1854H180.397V61.7125H190.23V62.1739H180.397V63.9042C180.397 64.2118 180.271 64.3656 180.019 64.3656L179.829 63.9042V62.1739H150.992V61.7125H179.829V23.1854H150.992Z" fill="#FA4B13"/>
<path d="M360.321 75.0932H360.699V79.7072H360.321V75.0932ZM387.173 25.4925C387.173 25.877 386.732 26.7998 385.849 28.2609H386.038C388.307 26.7998 389.568 26.0692 389.82 26.0692V25.8385C389.253 25.6078 388.37 25.4925 387.173 25.4925ZM362.023 177.063V177.294H364.67C364.544 176.217 364.386 175.679 364.197 175.679C362.937 176.602 362.212 177.063 362.023 177.063ZM350.298 177.063V177.294H355.877V176.025C355.877 175.102 356.602 173.756 358.052 171.988C353.324 175.371 350.74 177.063 350.298 177.063ZM370.154 177.063V177.294H375.07V176.256C375.07 175.025 376.3 173.141 378.758 170.603C374.283 174.218 371.415 176.371 370.154 177.063ZM354.931 159.876L354.27 161.491C355.341 160.875 355.877 160.414 355.877 160.106C355.499 160.106 355.184 160.03 354.931 159.876ZM395.588 154.454V154.685H396.25C396.25 154.454 396.376 154.108 396.628 153.647V153.416C395.934 153.878 395.588 154.224 395.588 154.454ZM396.911 129.654V130H397.29V129.654H396.911ZM351.433 128.385V128.616C351.622 128.616 352.284 128.808 353.419 129.193L353.23 127.808C352.095 128.193 351.496 128.385 351.433 128.385ZM345.004 125.617L347.935 127.001V126.77C347.746 126.386 347.651 126.117 347.651 125.963C347.651 125.501 347.966 124.694 348.597 123.54H348.313C346.107 124.771 345.004 125.463 345.004 125.617ZM409.203 125.386C409.329 125.924 409.928 126.193 410.999 126.193L412.512 123.194V122.964C410.684 124.425 409.581 125.232 409.203 125.386ZM408.352 120.772C408.352 121.003 404.885 123.694 397.951 128.846V129.193H398.424C398.802 128.654 402.269 125.963 408.825 121.118V120.772H408.352ZM332.712 114.082C333.469 115.543 333.973 116.273 334.225 116.273C334.225 115.197 334.383 114.466 334.698 114.082V113.851C334.131 114.005 333.469 114.082 332.712 114.082ZM417.145 112.697H418.091L418.752 111.429H418.469C417.586 112.044 417.145 112.467 417.145 112.697ZM330.821 109.468H329.781C330.349 110.852 330.79 111.582 331.105 111.659C331.105 111.121 331.483 110.314 332.24 109.237C331.924 109.314 331.641 109.352 331.389 109.352V109.698C331.389 110.006 331.263 110.16 331.01 110.16L330.821 109.698V109.468ZM337.345 119.503C339.047 121.426 340.717 122.848 342.356 123.771C342.356 121.541 343.554 119.311 345.949 117.081L353.891 107.853C344.815 115.62 339.299 119.503 337.345 119.503ZM374.125 104.392C371.352 108.16 367.601 111.852 362.874 115.466C359.848 118.157 358.304 119.58 358.241 119.734H358.524C365.773 114.428 372.612 109.045 379.042 103.585C375.764 103.969 374.125 104.238 374.125 104.392ZM422.44 101.393V101.739C422.44 101.97 422.66 102.239 423.102 102.547H423.385L424.047 100.355C423.165 101.047 422.629 101.393 422.44 101.393ZM364.67 100.355C364.481 101.585 360.573 106.43 352.946 114.889C362.779 106.815 367.948 102.777 368.452 102.777C368.452 102.547 367.349 101.739 365.143 100.355H364.67ZM360.51 94.9334V95.5102H360.699V94.9334H360.51ZM324.108 92.0497V93.0878C324.297 93.0878 324.518 92.8187 324.77 92.2804C324.581 92.2804 324.36 92.2035 324.108 92.0497ZM357.862 91.2422H358.902C358.776 90.8577 358.713 90.5886 358.713 90.4348H358.524C358.272 90.4348 358.052 90.7039 357.862 91.2422ZM405.705 86.8589V87.205H406.177V86.8589H405.705ZM325.621 97.1251C325.306 96.9713 325.085 96.8944 324.959 96.8944C324.959 97.0482 325.463 98.9323 326.472 102.547H326.945C327.386 100.547 331.199 96.2407 338.385 89.6273C341.915 86.3975 343.68 84.6673 343.68 84.4366C333.784 92.8956 327.764 97.1251 325.621 97.1251ZM323.446 78.5537V79.5918C323.636 79.5918 323.856 79.3227 324.108 78.7844C323.919 78.7844 323.699 78.7075 323.446 78.5537ZM343.964 89.858C350.708 84.3212 354.805 81.5528 356.255 81.5528H357.201V77.1695L357.39 76.7081H357.201C354.427 79.6303 350.015 84.0136 343.964 89.858ZM406.839 86.0515V86.3975H407.028L420.265 76.7081V76.362H420.076C418.185 77.5924 413.773 80.8222 406.839 86.0515ZM394.453 76.362H393.129V77.9769C393.192 78.3614 393.35 78.5537 393.602 78.5537L395.966 75.9006H395.777C395.273 76.2082 394.831 76.362 394.453 76.362ZM426.884 75.3239C427.01 75.3239 427.23 75.4008 427.545 75.5546V74.5164C427.356 74.5164 427.136 74.7856 426.884 75.3239ZM326.472 69.0949H324.486C324.486 69.4794 324.36 70.556 324.108 72.3248C326.44 70.1715 327.607 69.018 327.607 68.8642L326.472 69.0949ZM345.004 67.2493L329.592 78.7844V79.1304H329.781L345.476 67.48V67.2493H345.004ZM390.671 67.2493C390.986 67.8645 391.144 68.3259 391.144 68.6335H391.617C391.617 68.249 392.058 67.5185 392.94 66.4419H392.657C391.333 66.7495 390.671 67.0186 390.671 67.2493ZM387.646 62.4046C387.646 62.7122 387.929 63.0583 388.496 63.4428C388.496 63.0583 388.56 62.7122 388.686 62.4046H387.646ZM382.634 61.7125C381.374 60.9435 380.019 60.2898 378.569 59.7515C377.308 59.5208 376.268 59.4055 375.449 59.4055H374.409C367.916 59.4055 363.189 63.9042 360.226 72.9015C359.785 74.9778 359.501 77.4771 359.375 80.3993C359.375 90.7039 363.346 97.4327 371.288 100.586C371.982 100.586 373.022 100.778 374.409 101.162H375.26C380.365 101.162 384.399 98.74 387.362 93.8953C387.362 93.0494 388.118 91.7036 389.631 89.858C390.514 86.6282 390.955 83.5906 390.955 80.7453V79.9379C390.955 71.7095 388.402 65.7882 383.296 62.1739H368.736V61.7125H382.634ZM377.718 56.5217V56.7524H378.569V56.1757H378.38C378.065 56.4064 377.844 56.5217 377.718 56.5217ZM423.102 55.945C423.102 56.4064 422.156 57.6752 420.265 59.7515H420.454C421.652 58.8287 422.913 58.3673 424.236 58.3673C423.795 56.7524 423.417 55.945 423.102 55.945ZM351.244 55.3682C341.222 62.9045 334.383 68.2875 330.727 71.5173H330.916C335.202 68.4413 342.104 63.1736 351.622 55.7143V55.3682H351.244ZM382.067 57.7906C382.067 58.0213 383.044 58.7518 384.998 59.9822H385.187C385.187 58.1366 387.236 55.2529 391.333 51.331C386.353 55.3298 383.265 57.483 382.067 57.7906ZM418.752 47.063C418.752 47.4475 418.374 48.178 417.618 49.2547H418.091C418.532 48.8702 419.099 48.6779 419.792 48.6779C419.288 47.6013 418.941 47.063 418.752 47.063ZM335.549 43.8332L334.887 44.8713H335.076C335.454 44.5637 335.769 44.4099 336.022 44.4099C336.022 44.0254 335.864 43.8332 335.549 43.8332ZM410.337 37.1429C410.337 37.835 408.573 40.0651 405.043 43.8332C409.14 40.6034 411.567 38.9885 412.323 38.9885C411.441 37.9119 410.779 37.2967 410.337 37.1429ZM381.216 43.2564V43.6025H381.689C386.984 39.2192 391.081 36.1431 393.98 34.3744V34.1437H393.791L381.216 43.2564ZM386.984 32.2981C386.984 32.4519 383.296 35.2203 375.921 40.6034V40.8341H376.394C376.394 40.7572 380.05 37.9888 387.362 32.5288V32.2981H386.984ZM376.394 31.1446C376.331 31.4522 373.243 33.8746 367.128 38.4117V38.7578H367.506C367.57 38.4502 370.658 36.0278 376.772 31.4907V31.1446H376.394ZM301.984 140.497H320.137V140.958H301.984V140.497ZM331.389 56.0603V56.9831C332.523 55.9834 333.311 55.3682 333.752 55.1375V54.9068H333.563C332.744 55.4451 332.019 55.8296 331.389 56.0603ZM358.146 23.1854H331.389V45.4481C332.334 43.9101 333.343 42.3721 334.414 40.8341C334.792 39.6806 336.337 38.0657 339.047 35.9893C339.047 34.6051 340.024 33.7208 341.978 33.3363C348.029 27.9533 351.559 25.2618 352.568 25.2618H352.757L354.08 25.4925C355.782 24.4159 357.138 23.6468 358.146 23.1854ZM360.699 38.2964V38.7578C369.965 31.3753 376.205 26.6075 379.42 24.4543V24.2236L378.38 23.8775H375.07C374.314 26.1077 371.352 29.4528 366.183 33.913L360.699 38.2964ZM360.321 28.7223V28.2609C359.69 28.8761 359.375 29.2221 359.375 29.299H359.564C359.816 29.0683 360.069 28.8761 360.321 28.7223ZM360.699 28.3762C362.338 27.0689 363.725 26.0308 364.859 25.2618V25.0311H364.67C362.338 25.1849 361.172 25.9923 361.172 27.4534C360.983 27.6072 360.825 27.761 360.699 27.9148V28.3762ZM360.321 38.6424L333.374 60.213V60.559H333.752C344.342 51.8693 353.198 44.7175 360.321 39.1038V38.6424ZM323.825 101.624H301.984V101.047H323.636C321.871 95.3564 320.988 89.2813 320.988 82.8216V82.0142C320.988 75.1701 321.965 68.5566 323.919 62.1739H301.984V61.7125H324.014C325.653 56.4833 327.922 51.3694 330.821 46.3709V23.1854H301.984V22.4933H330.821V0.461402C330.821 0.153801 330.947 0 331.199 0L331.389 0.461402V22.4933H360.321V0.230701H360.699V22.4933H363.535L372.139 20.6477C380.397 21.1091 386.574 21.9166 390.671 23.0701C390.608 22.9932 390.577 22.8778 390.577 22.724L390.955 22.4933H419.131V0.230701H419.509V22.4933H448.63V0.230701H449.008V202.44H448.63V180.177H419.509V202.44H419.131V180.177H394.548C394.485 180.254 394.39 180.293 394.264 180.293H390.198V202.209C390.198 202.517 390.072 202.671 389.82 202.671L389.631 202.209V180.293H385.849C385.282 180.677 383.958 183.369 381.878 188.367H381.689C381.374 188.367 380.775 188.098 379.892 187.56V187.329C379.892 186.868 380.838 184.522 382.729 180.293H360.699V202.44H360.321V180.293H344.342C344.216 180.37 342.325 183.792 338.669 190.559C338.354 190.559 337.755 190.29 336.872 189.752V189.405C336.872 188.867 338.354 185.907 341.316 180.523V180.293H335.549C335.423 180.293 335.328 180.254 335.265 180.177H331.389V202.209C331.389 202.517 331.263 202.671 331.01 202.671L330.821 202.209V180.177H301.984V179.485H330.821V159.068C330.821 158.761 330.947 158.607 331.199 158.607L331.389 159.068V179.485H335.076V177.87C335.139 177.486 335.297 177.294 335.549 177.294H342.829C344.09 174.679 345.256 172.641 346.327 171.18C346.327 170.18 347.746 167.566 350.582 163.336C353.04 158.03 355.467 153.455 357.862 149.61C359.438 145.918 360.604 143.573 361.361 142.573C364.134 137.805 365.521 134.96 365.521 134.037H365.332C351.969 134.037 340.654 128.27 331.389 116.735C328.048 112.044 325.527 107.007 323.825 101.624ZM391.049 23.1854C391.301 23.2623 391.554 23.3392 391.806 23.4161C403.593 27.415 412.701 33.9515 419.131 43.0257V23.1854H391.049ZM419.509 115.12V128.039H419.131V115.812C414.277 125.117 409.959 133.345 406.177 140.497H410.716V140.958H405.988C398.487 155.339 393.224 165.451 390.198 171.295V177.294H394.264C394.516 177.371 394.642 177.563 394.642 177.87V179.485H419.131V159.068H419.509V179.485H448.63V140.958H429.909V140.497H448.63V101.624H430.949V101.047H448.63V62.1739H428.113V61.7125H448.63V23.1854H419.509V43.6025C420.076 44.3715 420.612 45.1789 421.116 46.0248C427.041 55.945 430.004 67.0571 430.004 79.3611V81.2067C430.004 92.1266 426.821 102.816 420.454 113.274C420.139 113.889 419.824 114.505 419.509 115.12ZM389.82 166.451C389.883 166.374 389.946 166.335 390.009 166.335C390.072 165.874 390.451 165.143 391.144 164.144H390.955C389.757 165.143 389.158 165.759 389.158 165.989L389.82 166.451ZM389.631 172.334C388.055 175.41 387.236 177.063 387.173 177.294H389.631V172.334ZM330.821 56.291C330.317 56.4448 329.907 56.5217 329.592 56.5217L328.458 56.1757C328.458 56.4064 327.89 58.0213 326.756 61.0204H326.945C328.458 59.5593 329.75 58.3673 330.821 57.4445V56.291ZM402.963 140.958C400.441 143.111 399.086 144.188 398.897 144.188V144.534C399.212 144.534 400 144.611 401.261 144.765L403.246 140.958H402.963ZM390.009 0L390.198 0.461402V22.2626C390.198 22.5702 390.072 22.724 389.82 22.724L389.631 22.2626V0.461402C389.631 0.153801 389.757 0 390.009 0Z" fill="#FA4B13"/>
<path d="M519.727 64.4809H534.95V64.9423H519.727V64.4809ZM512.636 28.2609C515.977 25.8001 517.679 24.4543 517.742 24.2236H517.458C515.567 24.2236 514.338 25.1464 513.771 26.992C513.582 26.992 513.204 27.415 512.636 28.2609ZM512.825 177.64V177.986C514.212 178.293 515.031 178.447 515.284 178.447C515.158 177.371 515 176.832 514.811 176.832C514.054 177.371 513.393 177.64 512.825 177.64ZM505.167 174.756C505.356 174.756 506.68 175.371 509.138 176.602L508.854 175.217C508.854 174.525 509.232 173.564 509.989 172.334H509.8C508.224 173.18 506.68 173.872 505.167 174.41V174.756ZM492.119 163.913C492.119 164.221 492.844 165.028 494.294 166.335V166.105L494.105 165.528C494.105 165.22 494.546 164.259 495.428 162.644H495.239C493.726 163.49 492.686 163.913 492.119 163.913ZM496.09 167.95C496.72 168.796 497.981 169.873 499.872 171.18V170.719L499.588 170.142C499.588 168.758 501.952 165.797 506.68 161.26C501.889 165.259 498.359 167.489 496.09 167.95ZM563.788 160.222L558.776 165.297V165.528L559.627 165.874C562.212 162.721 563.693 160.837 564.071 160.222H563.788ZM488.621 159.414C488.621 159.799 489.188 160.606 490.323 161.837C490.323 160.683 490.701 159.607 491.457 158.607H491.268C490.575 159.145 489.692 159.414 488.621 159.414ZM533.815 157.453C525.621 163.682 520.169 167.989 517.458 170.373H517.742C521.776 167.45 527.291 163.259 534.288 157.799V157.453H533.815ZM519.444 144.534C519.444 144.765 519.097 145.418 518.404 146.495H518.593C519.79 145.649 520.389 145.111 520.389 144.88C519.822 144.649 519.507 144.534 519.444 144.534ZM479.733 142.689V142.919C480.111 143.996 480.426 144.534 480.678 144.534C480.678 144.15 480.899 143.611 481.34 142.919C480.458 142.919 479.922 142.842 479.733 142.689ZM571.351 144.073L572.675 144.88C573.369 143.035 573.715 141.958 573.715 141.65C572.139 143.035 571.351 143.842 571.351 144.073ZM514.622 142.112H514.811C515.315 141.804 515.693 141.65 515.945 141.65C515.945 141.266 515.788 141.074 515.473 141.074C515.284 141.074 515 141.42 514.622 142.112ZM550.172 140.497V140.843H550.361C551.244 140.074 551.843 139.689 552.158 139.689V139.459H551.874C550.866 140.151 550.298 140.497 550.172 140.497ZM538.921 139.459C538.921 139.305 538.826 139.228 538.637 139.228C535.738 144.073 531.641 146.495 526.346 146.495C526.346 147.495 523.383 150.878 517.458 156.646C516.702 157.184 516.261 157.453 516.135 157.453V157.799H516.418C525.936 151.724 533.343 146.418 538.637 141.881C541.726 139.19 543.428 137.844 543.743 137.844V137.613H543.554C541.663 138.844 540.119 139.459 538.921 139.459ZM479.071 137.613H478.031C478.283 138.997 478.567 139.689 478.882 139.689C478.882 139.228 479.323 138.421 480.206 137.267L479.071 137.613ZM575.323 134.383V134.614H576.174L576.363 133.576C575.921 134.114 575.575 134.383 575.323 134.383ZM508.476 123.886C508.476 124.04 508.382 124.309 508.192 124.694H508.854C508.728 124.309 508.665 124.04 508.665 123.886H508.476ZM575.323 126.77C575.386 126.77 575.669 126.693 576.174 126.539C576.489 126.539 577.087 126.809 577.97 127.347C578.411 125.117 578.632 123.771 578.632 123.31C576.426 125.54 575.323 126.693 575.323 126.77ZM550.361 121.925C547.903 123.925 546.138 124.925 545.067 124.925C544.815 124.771 544.531 124.694 544.216 124.694C543.585 127.232 543.27 128.577 543.27 128.731C547.998 124.425 550.519 122.272 550.834 122.272V121.925H550.361ZM474.249 121.118V122.502C474.501 122.502 474.785 122.156 475.1 121.464V121.118H474.249ZM506.491 119.503L507.531 119.272L508.003 119.503V119.272L507.814 117.888C507.562 117.888 507.121 118.426 506.491 119.503ZM476.707 128.731H476.046L475.573 128.385V128.731L476.707 133.807H476.897C480.174 129.5 485.406 124.04 492.592 117.427C483.578 124.963 478.283 128.731 476.707 128.731ZM473.398 115.004V116.043C473.398 116.427 473.524 116.619 473.776 116.619L474.722 115.235L473.398 115.004ZM570.501 116.85C573.967 114.543 576.583 113.39 578.348 113.39C578.979 113.543 579.514 113.62 579.955 113.62C580.082 112.621 580.145 111.813 580.145 111.198V110.39L579.672 110.621L578.632 110.39C578.191 110.39 575.48 112.313 570.501 116.158V116.85ZM570.122 116.504C568.547 117.657 566.75 119.042 564.733 120.657V120.887H565.111C566.939 119.426 568.61 118.196 570.122 117.196V116.504ZM546.863 113.851H545.729L545.256 117.888L553.198 110.39C550.046 112.697 547.935 113.851 546.863 113.851ZM493.632 121.925C500.691 116.004 505.198 113.043 507.152 113.043C507.152 113.274 507.215 113.39 507.341 113.39V112.813C507.341 112.198 507.278 110.66 507.152 108.199C504.82 110.89 500.313 115.466 493.632 121.925ZM565.111 115.235H565.395C572.644 109.16 577.277 106.122 579.294 106.122L580.334 106.353L580.617 103.7V100.701C577.087 104.623 571.919 109.468 565.111 115.235ZM506.207 100.124V100.47L507.152 100.701V99.6628C506.774 99.9704 506.459 100.124 506.207 100.124ZM506.207 94.2413L506.68 94.472H507.152V93.2032C506.9 93.2032 506.585 93.5492 506.207 94.2413ZM570.028 101.278C574.692 97.5096 577.907 95.6255 579.672 95.6255C579.987 95.7793 580.208 95.8562 580.334 95.8562V95.6255C580.208 93.1647 580.145 91.6267 580.145 91.0115C577.938 93.7799 574.566 97.202 570.028 101.278ZM546.201 93.2032C546.201 92.9725 546.107 92.8571 545.918 92.8571V93.4339C546.107 96.2792 546.201 97.971 546.201 98.5093H546.39C546.39 98.0479 548.975 95.2026 554.143 89.9734C554.396 89.9734 557.043 87.4357 562.086 82.3602C553.702 89.5889 548.471 93.2032 546.39 93.2032H546.201ZM474.438 79.7072V79.9379C474.69 79.9379 474.911 79.6687 475.1 79.1304H474.911C474.596 79.2073 474.438 79.3996 474.438 79.7072ZM494.577 90.4348C501.322 84.8979 505.513 82.1295 507.152 82.1295L508.192 82.3602L509.327 76.7081C507.31 78.8613 502.393 83.4368 494.577 90.4348ZM544.594 77.8616C544.342 77.6309 544.121 77.5155 543.932 77.5155C544.31 79.3611 544.625 80.2839 544.878 80.2839C544.878 80.0532 545.886 78.7844 547.903 76.4774C546.327 77.4002 545.224 77.8616 544.594 77.8616ZM576.835 72.4401C573.81 76.5158 568.231 82.3602 560.1 89.9734C569.933 81.6681 575.732 77.5155 577.497 77.5155H578.159C577.655 74.1319 577.214 72.4401 576.835 72.4401ZM477.086 68.4028L476.235 71.8633C478.126 69.9408 479.229 68.9796 479.544 68.9796V68.6335C477.905 68.6335 477.086 68.5566 477.086 68.4028ZM541.285 68.6335C541.6 69.2487 541.757 69.7101 541.757 70.0177H541.947C542.073 70.0177 542.608 69.2872 543.554 67.8261H543.27C541.947 68.1337 541.285 68.4028 541.285 68.6335ZM496.279 67.5954L480.395 79.4765V79.7072H480.868C481.309 79.1689 486.604 75.2085 496.752 67.8261V67.5954H496.279ZM538.637 63.7888C538.637 64.0964 538.858 64.3656 539.299 64.5963C539.299 64.2118 539.394 63.8657 539.583 63.5581H539.299C539.047 63.7119 538.826 63.7888 538.637 63.7888ZM541.096 127.462C542.861 120.541 543.743 112.774 543.743 104.161V98.8554C543.743 79.3996 540.056 66.9033 532.681 61.3665C530.538 60.2898 528.71 59.7515 527.197 59.7515H525.684C519.066 59.7515 514.37 65.7882 511.596 77.8616H511.691V82.4756H511.313V78.8997C510.871 80.8991 510.493 83.0523 510.178 85.3594C509.611 91.1269 509.327 96.5868 509.327 101.739C509.327 124.194 513.235 137.767 521.051 142.458C522.879 143.15 525.148 143.496 527.859 143.496C531.578 143.496 534.666 141.266 537.125 136.806C537.125 135.883 538.07 134.076 539.961 131.384C540.213 130.692 540.434 129.962 540.623 129.193V127.808C540.623 127.424 540.749 127.232 541.001 127.232L541.096 127.462ZM572.392 58.4827C572.392 58.7134 571.446 59.9438 569.555 62.1739H569.744C571.32 61.0973 572.518 60.559 573.337 60.559C573.337 59.6362 573.022 58.9441 572.392 58.4827ZM529.655 57.3292H530.506V56.8678H530.033C529.781 56.8678 529.655 57.0216 529.655 57.3292ZM501.858 56.291L481.34 72.2094V72.4401H481.719C481.845 72.4401 488.684 67.134 502.236 56.5217V56.291H501.858ZM533.626 58.7134V58.9441C533.941 58.9441 534.824 59.5977 536.274 60.9051C536.274 59.2901 538.322 56.4833 542.419 52.4845C538.07 56.0219 535.139 58.0982 533.626 58.7134ZM566.908 51.677H567.097C567.664 51.3694 568.326 51.2156 569.082 51.2156C568.641 50.3697 568.42 49.8314 568.42 49.6007C568.231 49.6007 567.727 50.2928 566.908 51.677ZM565.111 44.9867V45.2174H565.584V44.9867H565.111ZM488.999 43.1411V43.3718C489.251 43.3718 489.472 43.1026 489.661 42.5643H489.472C489.156 42.6412 488.999 42.8335 488.999 43.1411ZM560.478 39.1038C560.478 39.719 558.871 41.7569 555.656 45.2174C559.501 42.3721 561.707 40.9494 562.275 40.9494C562.275 40.7187 561.77 40.1035 560.762 39.1038H560.478ZM531.357 44.4099V44.756H531.641C539.205 38.9116 543.743 35.5664 545.256 34.7205V34.4898H545.067L531.357 44.4099ZM538.637 32.2981C538.637 32.4519 534.981 35.2588 527.67 40.7187V40.9494H527.859L539.11 32.6442V32.2981H538.637ZM518.12 39.1038V39.3345H518.593L528.521 31.26L518.12 39.1038ZM539.299 25.0311C538.921 26.2615 538.354 27.3381 537.597 28.2609H537.786C539.993 26.8767 541.316 26.1846 541.757 26.1846V25.8385C541.505 25.8385 540.686 25.5694 539.299 25.0311ZM452.975 140.497H471.129V140.958H452.975V140.497ZM582.792 101.047H599.622V62.1739H579.105V61.7125H599.622V23.1854H570.501V44.0639H570.122V23.1854H542.798C560.132 29.4913 572.36 45.6403 579.483 71.6326C581.689 81.8604 582.792 91.2807 582.792 99.8935V101.047ZM582.792 101.624V103.354C582.792 124.194 577.875 142.765 568.042 159.068C561.361 168.988 553.45 175.794 544.31 179.485H570.122V159.068H570.501V179.485H599.622V140.958H580.901V140.497H599.622V101.624H582.792ZM482.38 55.3682V57.9059C484.46 55.9065 485.879 54.753 486.635 54.4454V54.0994H486.351C484.776 55.0222 483.546 55.4836 482.664 55.4836C482.538 55.4067 482.443 55.3682 482.38 55.3682ZM509.705 23.1854H482.38V49.1393C484.145 45.9864 486.068 42.9104 488.148 39.9113C488.148 39.0654 489.913 37.066 493.443 33.913C493.443 32.8364 494.262 32.1443 495.901 31.8367C501.637 26.6075 505.23 23.9929 506.68 23.9929C507.121 24.1467 507.341 24.3389 507.341 24.5697C508.224 24.0313 509.012 23.5699 509.705 23.1854ZM511.691 39.1038V39.3345C520.767 32.1059 527.481 26.992 531.83 23.9929H532.019V23.7622L529.372 23.4161H527.859C525.842 26.8767 522.154 30.7601 516.796 35.0665L511.691 39.1038ZM472.736 101.047H476.14V101.624C476.455 101.316 476.77 101.009 477.086 100.701L491.646 87.551C487.99 90.4732 484.902 92.8956 482.38 94.8181V95.2795C482.38 95.5871 482.254 95.7409 482.002 95.7409L481.813 95.2795C477.464 98.5093 474.785 100.124 473.776 100.124C473.524 99.9704 473.241 99.8935 472.925 99.8935H472.736V101.047ZM540.623 177.755V174.987C538.417 176.678 536.652 177.947 535.328 178.793V179.024H535.801C537.503 178.716 539.11 178.293 540.623 177.755ZM540.717 22.4933L540.623 22.2626V0.461402C540.623 0.153801 540.749 0 541.001 0L541.19 0.461402V22.2626C541.19 22.4164 541.159 22.5318 541.096 22.6087C541.285 22.6856 541.442 22.724 541.568 22.724L541.947 22.4933H570.122V0.230701H570.501V22.4933H599.622V0.230701H600V202.44H599.622V180.177H570.501V202.44H570.122V180.177H542.514C542.073 180.331 541.631 180.485 541.19 180.639V202.209C541.19 202.517 541.064 202.671 540.812 202.671L540.623 202.209V180.754C536.211 182.138 531.515 182.831 526.535 182.831C521.24 182.831 516.292 182.1 511.691 180.639V202.44H511.313V180.523C510.997 180.37 510.682 180.254 510.367 180.177H482.38V202.209C482.38 202.517 482.254 202.671 482.002 202.671L481.813 202.209V180.177H452.975V179.485H481.813V159.068C481.813 158.761 481.939 158.607 482.191 158.607L482.38 159.068V179.485H508.571C493.695 173.487 482.538 159.337 475.1 137.036C471.885 125.117 470.278 113.313 470.278 101.624H452.975V101.047H470.278C470.341 86.8205 472.453 73.8628 476.613 62.1739H452.975V61.7125H476.802C478.189 57.7137 479.859 53.8687 481.813 50.1775V23.1854H452.975V22.4933H481.813V0.461402C481.813 0.153801 481.939 0 482.191 0L482.38 0.461402V22.4933H510.934C511.06 22.4164 511.186 22.3395 511.313 22.2626V0.230701H511.691V22.1473C512.069 21.9166 512.321 21.8012 512.447 21.8012C512.762 21.8012 513.33 21.9166 514.149 22.1473L524.739 20.1863C530.475 20.1863 535.801 20.9553 540.717 22.4933ZM519.917 179.485H523.888C523.762 179.101 523.699 178.755 523.699 178.447V178.216L523.888 176.832H523.699L519.917 179.485ZM541.19 177.64C542.577 177.178 543.869 176.64 545.067 176.025L544.878 175.563V174.987C544.878 173.372 547.588 170.065 553.009 165.067C548.218 168.988 544.279 172.141 541.19 174.525V177.64ZM472.736 101.624V105.546H472.925C472.925 105.007 473.997 103.7 476.14 101.624H472.736ZM511.313 39.4499L486.162 59.5208V59.7515H486.635C496.216 51.8308 504.442 45.1405 511.313 39.6806V39.4499ZM481.813 55.5989C481.246 56.6755 480.647 58.1751 480.017 60.0976C480.647 59.4824 481.246 58.9056 481.813 58.3673V55.5989Z" fill="#FA4B13"/>
</svg>
